<svg width="180" height="54" viewBox="0 0 180 54" fill="none" xmlns="http://www.w3.org/2000/svg">
<path fill-rule="evenodd" clip-rule="evenodd" d="M46.8076 9.2816V7.20316L41.0619 9.33873H41.051V11.4716H41.0619L46.8076 13.6072V11.526L43.8613 10.3997L46.8076 9.27888V9.2816Z" fill="#F7DD43"/>
<path fill-rule="evenodd" clip-rule="evenodd" d="M80.0872 13.5037V11.4253L83.0307 10.3072L80.0872 9.18905V7.1106L85.8246 9.24618H85.8383V11.3817H85.8246L80.0872 13.5064V13.5037ZM77.6224 4.16977L74.249 15H76.2513L79.6247 4.16977H77.6224Z" fill="#F7DD43"/>
<path fill-rule="evenodd" clip-rule="evenodd" d="M55.2492 6.91747C55.8205 7.54317 56.1198 8.3702 56.0844 9.21627V13.8302H54.0822V9.64066C54.1066 9.17274 53.957 8.7157 53.6632 8.35116C53.3857 8.02742 52.9749 7.84787 52.5478 7.86691C51.2937 7.86691 50.6652 8.73746 50.6652 10.4758V13.8302H48.663V6.25639H50.6652V6.93923C51.3018 6.32168 52.1642 5.99251 53.0511 6.03059C53.8781 5.99523 54.6779 6.31896 55.2492 6.91747Z" fill="#F7DD43"/>
<path fill-rule="evenodd" clip-rule="evenodd" d="M58.6362 3V13.8302H60.6385V3H58.6362Z" fill="#F7DD43"/>
<path fill-rule="evenodd" clip-rule="evenodd" d="M71.961 13.8302H70.2907L68.6529 9.36862L66.9989 13.8302H65.3285L62.521 6.2428H64.662L66.2399 10.7806L67.8667 6.2428H69.431L71.0578 10.7942L72.6357 6.2428H74.7767L71.9665 13.8302H71.961Z" fill="#F7DD43"/>
<path d="M95.3745 17.9981C93.4482 17.9981 91.4244 17.6331 89.8383 16.754V1.24411C91.3996 0.389878 93.4233 2.85548e-05 95.3745 2.85548e-05C97.3257 2.85548e-05 99.3017 0.365035 100.861 1.24411V7.19505H96.9339V3.14558C96.4714 2.95066 95.9096 2.87804 95.3497 2.87804C94.7897 2.87804 94.2757 2.95066 93.7884 3.14558V14.8525C94.2508 15.0475 94.7878 15.1201 95.3497 15.1201C95.9115 15.1201 96.4466 15.0475 96.9339 14.8525V10.805H100.861V16.7559C99.3246 17.6101 97.3008 17.9752 95.3745 18V17.9981Z" fill="#F7DD43"/>
<path d="M108.226 17.9981C106.153 17.9981 104.154 17.5585 102.568 16.6565V1.3167C104.129 0.439536 106.13 0 108.226 0C110.323 0 112.274 0.414693 113.835 1.3167V16.6565C112.299 17.5585 110.275 17.9732 108.226 17.9981ZM109.91 3.19524C109.447 3.00031 108.886 2.90285 108.203 2.90285C107.521 2.90285 106.984 3.00031 106.52 3.19524V14.7799C106.982 14.9997 107.544 15.0971 108.203 15.0971C108.863 15.0971 109.423 14.9997 109.91 14.7799V3.19524Z" fill="#F7DD43"/>
<path d="M120.688 11.4127H119.639V17.7783H115.664V0.219779H120.688C123.079 0.219779 124.883 0.707092 126.297 1.70656V9.92589C124.908 10.9024 123.077 11.4127 120.688 11.4127ZM122.347 3.24303C121.982 2.97548 121.493 2.85318 120.663 2.85318H119.589V8.77927H120.663C121.468 8.77927 121.955 8.65697 122.347 8.41427V3.24303Z" fill="#F7DD43"/>
<path d="M134.612 17.7783V11.4127H131.686V17.7783H127.736V1.29185C129.175 0.437626 131.199 0 133.15 0C135.101 0 137.1 0.439537 138.539 1.29185V17.7783H134.612ZM134.612 3.04809C134.197 2.85316 133.685 2.7557 133.148 2.7557C132.611 2.7557 132.099 2.85316 131.684 3.04809V8.63211H134.61V3.04809H134.612Z" fill="#F7DD43"/>
<path d="M13.0078 45.9658H17.3877C17.2998 47.4014 16.9043 48.6758 16.2012 49.7891C15.5078 50.9023 14.5361 51.7715 13.2861 52.3965C12.0459 53.0215 10.5518 53.334 8.80371 53.334C7.43652 53.334 6.21094 53.0996 5.12695 52.6309C4.04297 52.1523 3.11523 51.4688 2.34375 50.5801C1.58203 49.6914 1.00098 48.6172 0.600586 47.3574C0.200195 46.0977 0 44.6865 0 43.124V41.6445C0 40.082 0.205078 38.6709 0.615234 37.4111C1.03516 36.1416 1.63086 35.0625 2.40234 34.1738C3.18359 33.2852 4.11621 32.6016 5.2002 32.123C6.28418 31.6445 7.49512 31.4053 8.83301 31.4053C10.6104 31.4053 12.1094 31.7275 13.3301 32.3721C14.5605 33.0166 15.5127 33.9053 16.1865 35.0381C16.8701 36.1709 17.2803 37.46 17.417 38.9053H13.0225C12.9736 38.0459 12.8027 37.3184 12.5098 36.7227C12.2168 36.1172 11.7725 35.6631 11.1768 35.3604C10.5908 35.0479 9.80957 34.8916 8.83301 34.8916C8.10059 34.8916 7.46094 35.0283 6.91406 35.3018C6.36719 35.5752 5.9082 35.9902 5.53711 36.5469C5.16602 37.1035 4.8877 37.8066 4.70215 38.6562C4.52637 39.4961 4.43848 40.4824 4.43848 41.6152V43.124C4.43848 44.2275 4.52148 45.1992 4.6875 46.0391C4.85352 46.8691 5.10742 47.5723 5.44922 48.1484C5.80078 48.7148 6.25 49.1445 6.79688 49.4375C7.35352 49.7207 8.02246 49.8623 8.80371 49.8623C9.72168 49.8623 10.4785 49.7158 11.0742 49.4229C11.6699 49.1299 12.124 48.6953 12.4365 48.1191C12.7588 47.543 12.9492 46.8252 13.0078 45.9658Z" fill="url(#paint0_linear_122_251)"/>
<path d="M28.9453 35.3604L23.1445 53.041H18.4717L26.3965 31.7129H29.3701L28.9453 35.3604ZM33.7646 53.041L27.9492 35.3604L27.4805 31.7129H30.4834L38.4521 53.041H33.7646ZM33.501 45.1016V48.5439H22.2363V45.1016H33.501Z" fill="url(#paint1_linear_122_251)"/>
<path d="M54.1406 49.6133V53.041H43.4033V49.6133H54.1406ZM44.8242 31.7129V53.041H40.4297V31.7129H44.8242Z" fill="url(#paint2_linear_122_251)"/>
<path d="M70.9717 49.6133V53.041H59.6191V49.6133H70.9717ZM61.0547 31.7129V53.041H56.6602V31.7129H61.0547ZM69.4922 40.3994V43.7393H59.6191V40.3994H69.4922ZM70.957 31.7129V35.1553H59.6191V31.7129H70.957Z" fill="url(#paint3_linear_122_251)"/>
<path d="M90.8936 31.7129V53.041H86.499L77.9297 38.7441V53.041H73.5352V31.7129H77.9297L86.5137 46.0244V31.7129H90.8936Z" fill="url(#paint4_linear_122_251)"/>
<path d="M101.265 53.041H96.6211L96.6504 49.6133H101.265C102.417 49.6133 103.389 49.3545 104.18 48.8369C104.971 48.3096 105.566 47.543 105.967 46.5371C106.377 45.5312 106.582 44.3154 106.582 42.8896V41.8496C106.582 40.7559 106.465 39.7939 106.23 38.9639C106.006 38.1338 105.669 37.4355 105.22 36.8691C104.771 36.3027 104.219 35.8779 103.564 35.5947C102.91 35.3018 102.158 35.1553 101.309 35.1553H96.5332V31.7129H101.309C102.734 31.7129 104.038 31.957 105.22 32.4453C106.411 32.9238 107.441 33.6123 108.311 34.5107C109.18 35.4092 109.849 36.4834 110.317 37.7334C110.796 38.9736 111.035 40.3555 111.035 41.8789V42.8896C111.035 44.4033 110.796 45.7852 110.317 47.0352C109.849 48.2852 109.18 49.3594 108.311 50.2578C107.451 51.1465 106.421 51.835 105.22 52.3232C104.028 52.8018 102.71 53.041 101.265 53.041ZM99.1113 31.7129V53.041H94.7168V31.7129H99.1113Z" fill="url(#paint5_linear_122_251)"/>
<path d="M122.578 35.3604L116.777 53.041H112.104L120.029 31.7129H123.003L122.578 35.3604ZM127.397 53.041L121.582 35.3604L121.113 31.7129H124.116L132.085 53.041H127.397ZM127.134 45.1016V48.5439H115.869V45.1016H127.134ZM120.103 30.5117L122.974 26H127.559L123.53 30.5117H120.103Z" fill="url(#paint6_linear_122_251)"/>
<path d="M134.062 31.7129H142.017C143.647 31.7129 145.049 31.957 146.221 32.4453C147.402 32.9336 148.311 33.6562 148.945 34.6133C149.58 35.5703 149.897 36.7471 149.897 38.1436C149.897 39.2861 149.702 40.2676 149.312 41.0879C148.931 41.8984 148.389 42.5771 147.686 43.124C146.992 43.6611 146.177 44.0908 145.239 44.4131L143.848 45.1455H136.934L136.904 41.7178H142.046C142.817 41.7178 143.457 41.5811 143.965 41.3076C144.473 41.0342 144.854 40.6533 145.107 40.165C145.371 39.6768 145.503 39.1104 145.503 38.4658C145.503 37.7822 145.376 37.1914 145.122 36.6934C144.868 36.1953 144.482 35.8145 143.965 35.5508C143.447 35.2871 142.798 35.1553 142.017 35.1553H138.457V53.041H134.062V31.7129ZM145.986 53.041L141.123 43.5342L145.767 43.5049L150.688 52.8359V53.041H145.986Z" fill="url(#paint7_linear_122_251)"/>
<path d="M157.954 31.7129V53.041H153.574V31.7129H157.954Z" fill="url(#paint8_linear_122_251)"/>
<path d="M179.59 41.8789V42.8896C179.59 44.5107 179.37 45.9658 178.931 47.2549C178.491 48.5439 177.871 49.6426 177.07 50.5508C176.27 51.4492 175.312 52.1377 174.199 52.6162C173.096 53.0947 171.87 53.334 170.522 53.334C169.185 53.334 167.959 53.0947 166.846 52.6162C165.742 52.1377 164.785 51.4492 163.975 50.5508C163.164 49.6426 162.534 48.5439 162.085 47.2549C161.646 45.9658 161.426 44.5107 161.426 42.8896V41.8789C161.426 40.248 161.646 38.793 162.085 37.5137C162.524 36.2246 163.145 35.126 163.945 34.2178C164.756 33.3096 165.713 32.6162 166.816 32.1377C167.93 31.6592 169.155 31.4199 170.493 31.4199C171.841 31.4199 173.066 31.6592 174.17 32.1377C175.283 32.6162 176.24 33.3096 177.041 34.2178C177.852 35.126 178.477 36.2246 178.916 37.5137C179.365 38.793 179.59 40.248 179.59 41.8789ZM175.151 42.8896V41.8496C175.151 40.7168 175.049 39.7207 174.844 38.8613C174.639 38.002 174.336 37.2793 173.936 36.6934C173.535 36.1074 173.047 35.668 172.471 35.375C171.895 35.0723 171.235 34.9209 170.493 34.9209C169.751 34.9209 169.092 35.0723 168.516 35.375C167.949 35.668 167.466 36.1074 167.065 36.6934C166.675 37.2793 166.377 38.002 166.172 38.8613C165.967 39.7207 165.864 40.7168 165.864 41.8496V42.8896C165.864 44.0127 165.967 45.0088 166.172 45.8779C166.377 46.7373 166.68 47.4648 167.08 48.0605C167.48 48.6465 167.969 49.0908 168.545 49.3936C169.121 49.6963 169.78 49.8477 170.522 49.8477C171.265 49.8477 171.924 49.6963 172.5 49.3936C173.076 49.0908 173.56 48.6465 173.95 48.0605C174.341 47.4648 174.639 46.7373 174.844 45.8779C175.049 45.0088 175.151 44.0127 175.151 42.8896Z" fill="url(#paint9_linear_122_251)"/>
<defs>
<linearGradient id="paint0_linear_122_251" x1="89.7949" y1="24.041" x2="89.7949" y2="62.041" gradientUnits="userSpaceOnUse">
<stop stop-color="white"/>
<stop offset="1" stop-color="#D9D9D9" stop-opacity="0.8"/>
</linearGradient>
<linearGradient id="paint1_linear_122_251" x1="89.7949" y1="24.041" x2="89.7949" y2="62.041" gradientUnits="userSpaceOnUse">
<stop stop-color="white"/>
<stop offset="1" stop-color="#D9D9D9" stop-opacity="0.8"/>
</linearGradient>
<linearGradient id="paint2_linear_122_251" x1="89.7949" y1="24.041" x2="89.7949" y2="62.041" gradientUnits="userSpaceOnUse">
<stop stop-color="white"/>
<stop offset="1" stop-color="#D9D9D9" stop-opacity="0.8"/>
</linearGradient>
<linearGradient id="paint3_linear_122_251" x1="89.7949" y1="24.041" x2="89.7949" y2="62.041" gradientUnits="userSpaceOnUse">
<stop stop-color="white"/>
<stop offset="1" stop-color="#D9D9D9" stop-opacity="0.8"/>
</linearGradient>
<linearGradient id="paint4_linear_122_251" x1="89.7949" y1="24.041" x2="89.7949" y2="62.041" gradientUnits="userSpaceOnUse">
<stop stop-color="white"/>
<stop offset="1" stop-color="#D9D9D9" stop-opacity="0.8"/>
</linearGradient>
<linearGradient id="paint5_linear_122_251" x1="89.7949" y1="24.041" x2="89.7949" y2="62.041" gradientUnits="userSpaceOnUse">
<stop stop-color="white"/>
<stop offset="1" stop-color="#D9D9D9" stop-opacity="0.8"/>
</linearGradient>
<linearGradient id="paint6_linear_122_251" x1="89.7949" y1="24.041" x2="89.7949" y2="62.041" gradientUnits="userSpaceOnUse">
<stop stop-color="white"/>
<stop offset="1" stop-color="#D9D9D9" stop-opacity="0.8"/>
</linearGradient>
<linearGradient id="paint7_linear_122_251" x1="89.7949" y1="24.041" x2="89.7949" y2="62.041" gradientUnits="userSpaceOnUse">
<stop stop-color="white"/>
<stop offset="1" stop-color="#D9D9D9" stop-opacity="0.8"/>
</linearGradient>
<linearGradient id="paint8_linear_122_251" x1="89.7949" y1="24.041" x2="89.7949" y2="62.041" gradientUnits="userSpaceOnUse">
<stop stop-color="white"/>
<stop offset="1" stop-color="#D9D9D9" stop-opacity="0.8"/>
</linearGradient>
<linearGradient id="paint9_linear_122_251" x1="89.7949" y1="24.041" x2="89.7949" y2="62.041" gradientUnits="userSpaceOnUse">
<stop stop-color="white"/>
<stop offset="1" stop-color="#D9D9D9" stop-opacity="0.8"/>
</linearGradient>
</defs>
</svg>
